<svg width="254" height="48" viewBox="0 0 254 48" fill="none" xmlns="http://www.w3.org/2000/svg">
<g clip-path="url(#clip0_1_10)">
<path d="M5.67889 14.9085L1.19696 19.2758C-0.295612 20.7302 -0.343002 23.0979 1.0902 24.6097L9.92465 33.9286C10.3424 34.3691 11.0425 34.3896 11.4858 33.9742L21.0497 25.0131C22.6063 23.5546 25.0656 23.632 26.5254 25.1855L30.4534 29.3655C30.8722 29.8111 31.5784 29.8313 32.0226 29.4104L34.7573 26.818C36.2946 25.3608 36.3488 22.9464 34.8787 21.4229L26.0546 12.2788C24.5963 10.7674 22.1813 10.6977 20.6364 12.1223L12.9972 19.1665C12.5618 19.5681 11.8829 19.5549 11.4638 19.1367L7.23426 14.9175C6.80676 14.4911 6.11141 14.4871 5.67889 14.9085Z" fill="white"/>
<path d="M20.7556 27.8582L12.9469 35.3238C12.5134 35.7382 12.4966 36.4204 12.9091 36.8553L15.629 39.7224C17.0976 41.2706 19.5603 41.3349 21.1094 39.8656L28.9771 32.4029C29.4158 31.9869 29.4316 31.2978 29.0123 30.8626L26.2271 27.9702C24.7505 26.4368 22.295 26.3866 20.7556 27.8582Z" fill="white"/>
</g>
<path d="M44.768 26.008C44.768 24.152 45.0987 22.5307 45.76 21.144C46.4427 19.7573 47.36 18.6907 48.512 17.944C49.6853 17.1973 50.9867 16.824 52.416 16.824C53.6533 16.824 54.72 17.0693 55.616 17.56C56.512 18.0507 57.2053 18.712 57.696 19.544V17.048H63.968V35H57.696V32.504C57.2053 33.336 56.5013 33.9973 55.584 34.488C54.688 34.9787 53.632 35.224 52.416 35.224C50.9867 35.224 49.6853 34.8507 48.512 34.104C47.36 33.3573 46.4427 32.2907 45.76 30.904C45.0987 29.496 44.768 27.864 44.768 26.008ZM57.696 26.008C57.696 24.856 57.376 23.9493 56.736 23.288C56.1173 22.6267 55.3493 22.296 54.432 22.296C53.4933 22.296 52.7147 22.6267 52.096 23.288C51.4773 23.928 51.168 24.8347 51.168 26.008C51.168 27.16 51.4773 28.0773 52.096 28.76C52.7147 29.4213 53.4933 29.752 54.432 29.752C55.3493 29.752 56.1173 29.4213 56.736 28.76C57.376 28.0987 57.696 27.1813 57.696 26.008ZM78.774 35L73.814 27.64V35H67.542V11.32H73.814V24.088L78.774 17.048H86.294L79.222 26.072L86.422 35H78.774ZM105.413 25.816C105.413 26.3067 105.381 26.7973 105.317 27.288H93.4448C93.5088 28.2693 93.7754 29.0053 94.2448 29.496C94.7354 29.9653 95.3541 30.2 96.1008 30.2C97.1461 30.2 97.8928 29.7307 98.3408 28.792H105.029C104.751 30.0293 104.207 31.1387 103.397 32.12C102.607 33.08 101.605 33.8373 100.389 34.392C99.1728 34.9467 97.8288 35.224 96.3568 35.224C94.5861 35.224 93.0074 34.8507 91.6208 34.104C90.2554 33.3573 89.1781 32.2907 88.3888 30.904C87.6208 29.5173 87.2368 27.8853 87.2368 26.008C87.2368 24.1307 87.6208 22.5093 88.3888 21.144C89.1568 19.7573 90.2234 18.6907 91.5888 17.944C92.9754 17.1973 94.5648 16.824 96.3568 16.824C98.1274 16.824 99.6954 17.1867 101.061 17.912C102.426 18.6373 103.493 19.6827 104.261 21.048C105.029 22.392 105.413 23.9813 105.413 25.816ZM99.0128 24.248C99.0128 23.48 98.7568 22.8827 98.2448 22.456C97.7328 22.008 97.0928 21.784 96.3248 21.784C95.5568 21.784 94.9274 21.9973 94.4368 22.424C93.9461 22.8293 93.6261 23.4373 93.4768 24.248H99.0128ZM114.252 11.32V35H107.98V11.32H114.252ZM116.799 26.008C116.799 24.152 117.13 22.5307 117.791 21.144C118.474 19.7573 119.391 18.6907 120.543 17.944C121.717 17.1973 123.018 16.824 124.447 16.824C125.685 16.824 126.751 17.0693 127.647 17.56C128.543 18.0507 129.237 18.712 129.727 19.544V17.048H135.999V35H129.727V32.504C129.237 33.336 128.533 33.9973 127.615 34.488C126.719 34.9787 125.663 35.224 124.447 35.224C123.018 35.224 121.717 34.8507 120.543 34.104C119.391 33.3573 118.474 32.2907 117.791 30.904C117.13 29.496 116.799 27.864 116.799 26.008ZM129.727 26.008C129.727 24.856 129.407 23.9493 128.767 23.288C128.149 22.6267 127.381 22.296 126.463 22.296C125.525 22.296 124.746 22.6267 124.127 23.288C123.509 23.928 123.199 24.8347 123.199 26.008C123.199 27.16 123.509 28.0773 124.127 28.76C124.746 29.4213 125.525 29.752 126.463 29.752C127.381 29.752 128.149 29.4213 128.767 28.76C129.407 28.0987 129.727 27.1813 129.727 26.008ZM151.97 19.544C152.461 18.712 153.154 18.0507 154.05 17.56C154.946 17.0693 156.002 16.824 157.218 16.824C158.648 16.824 159.938 17.1973 161.09 17.944C162.264 18.6907 163.181 19.7573 163.842 21.144C164.525 22.5307 164.866 24.152 164.866 26.008C164.866 27.864 164.525 29.496 163.842 30.904C163.181 32.2907 162.264 33.3573 161.09 34.104C159.938 34.8507 158.648 35.224 157.218 35.224C156.002 35.224 154.946 34.9787 154.05 34.488C153.176 33.9973 152.482 33.336 151.97 32.504V43.576H145.698V17.048H151.97V19.544ZM158.498 26.008C158.498 24.8347 158.178 23.928 157.538 23.288C156.92 22.6267 156.152 22.296 155.234 22.296C154.317 22.296 153.538 22.6267 152.898 23.288C152.28 23.9493 151.97 24.856 151.97 26.008C151.97 27.1813 152.28 28.0987 152.898 28.76C153.538 29.4213 154.317 29.752 155.234 29.752C156.152 29.752 156.92 29.4213 157.538 28.76C158.178 28.0773 158.498 27.16 158.498 26.008ZM173.72 20.216C174.424 19.192 175.278 18.3813 176.28 17.784C177.283 17.1867 178.36 16.888 179.512 16.888V23.576H177.752C176.387 23.576 175.374 23.8427 174.712 24.376C174.051 24.9093 173.72 25.8373 173.72 27.16V35H167.448V17.048H173.72V20.216ZM184.929 15.384C183.819 15.384 182.923 15.0853 182.241 14.488C181.579 13.8693 181.249 13.1013 181.249 12.184C181.249 11.2453 181.579 10.4667 182.241 9.848C182.923 9.22933 183.819 8.92 184.929 8.92C186.017 8.92 186.891 9.22933 187.553 9.848C188.235 10.4667 188.577 11.2453 188.577 12.184C188.577 13.1013 188.235 13.8693 187.553 14.488C186.891 15.0853 186.017 15.384 184.929 15.384ZM188.033 17.048V35H181.761V17.048H188.033ZM203.349 16.888C205.418 16.888 207.061 17.5813 208.277 18.968C209.493 20.3333 210.101 22.1893 210.101 24.536V35H203.829V25.368C203.829 24.344 203.562 23.544 203.029 22.968C202.495 22.3707 201.781 22.072 200.885 22.072C199.946 22.072 199.21 22.3707 198.677 22.968C198.143 23.544 197.877 24.344 197.877 25.368V35H191.605V17.048H197.877V19.608C198.431 18.7973 199.178 18.1467 200.117 17.656C201.055 17.144 202.133 16.888 203.349 16.888ZM224.134 29.656V35H221.414C216.827 35 214.534 32.728 214.534 28.184V22.264H212.326V17.048H214.534V12.696H220.838V17.048H224.102V22.264H220.838V28.28C220.838 28.7707 220.945 29.1227 221.158 29.336C221.393 29.5493 221.777 29.656 222.31 29.656H224.134ZM230.179 15.384C229.069 15.384 228.173 15.0853 227.491 14.488C226.829 13.8693 226.499 13.1013 226.499 12.184C226.499 11.2453 226.829 10.4667 227.491 9.848C228.173 9.22933 229.069 8.92 230.179 8.92C231.267 8.92 232.141 9.22933 232.803 9.848C233.485 10.4667 233.827 11.2453 233.827 12.184C233.827 13.1013 233.485 13.8693 232.803 14.488C232.141 15.0853 231.267 15.384 230.179 15.384ZM233.283 17.048V35H227.011V17.048H233.283ZM244.503 35.224C242.881 35.224 241.431 34.9573 240.151 34.424C238.892 33.8693 237.889 33.1227 237.143 32.184C236.417 31.224 236.012 30.1467 235.927 28.952H242.007C242.092 29.528 242.359 29.976 242.807 30.296C243.255 30.616 243.809 30.776 244.47 30.776C244.983 30.776 245.388 30.6693 245.687 30.456C245.985 30.2427 246.135 29.9653 246.135 29.624C246.135 29.176 245.889 28.8453 245.399 28.632C244.908 28.4187 244.097 28.184 242.967 27.928C241.687 27.672 240.62 27.384 239.766 27.064C238.913 26.744 238.167 26.2213 237.527 25.496C236.908 24.7707 236.599 23.7893 236.599 22.552C236.599 21.4853 236.887 20.5253 237.463 19.672C238.039 18.7973 238.881 18.104 239.991 17.592C241.121 17.08 242.476 16.824 244.055 16.824C246.401 16.824 248.247 17.4 249.591 18.552C250.935 19.704 251.713 21.2187 251.927 23.096H246.263C246.156 22.52 245.9 22.0827 245.495 21.784C245.111 21.464 244.588 21.304 243.927 21.304C243.415 21.304 243.02 21.4 242.743 21.592C242.487 21.784 242.359 22.0507 242.359 22.392C242.359 22.8187 242.604 23.1493 243.095 23.384C243.585 23.5973 244.375 23.8213 245.463 24.056C246.764 24.3333 247.841 24.6427 248.695 24.984C249.569 25.3253 250.327 25.88 250.967 26.648C251.628 27.3947 251.958 28.4187 251.958 29.72C251.958 30.7653 251.649 31.704 251.031 32.536C250.433 33.368 249.569 34.0293 248.439 34.52C247.329 34.9893 246.017 35.224 244.503 35.224Z" fill="white"/>
<defs>
<clipPath id="clip0_1_10">
<rect width="36" height="30" fill="white" transform="translate(0 11)"/>
</clipPath>
</defs>
</svg>
